<svg width="21" height="21" viewBox="0 0 21 21" fill="none" xmlns="http://www.w3.org/2000/svg">
<path fill-rule="evenodd" clip-rule="evenodd" d="M0.5 6.02203C0.5 2.97719 2.97719 0.5 6.02203 0.5H14.978C18.0229 0.5 20.5 2.97719 20.5 6.02203V14.978C20.5 18.0229 18.0229 20.5 14.978 20.5H6.02203C2.97719 20.5 0.5 18.0229 0.5 14.978V6.02203ZM6.52914 10.5C6.52914 12.6895 8.31047 14.4709 10.5 14.4709C12.6895 14.4709 14.4709 12.6895 14.4709 10.5C14.4709 8.31048 12.6895 6.52914 10.5 6.52914C8.31047 6.52914 6.52914 8.31048 6.52914 10.5ZM5.24211 10.5C5.24211 7.60074 7.60074 5.24211 10.5 5.24211C13.3993 5.24211 15.7579 7.60074 15.7579 10.5C15.7579 13.3993 13.3993 15.7579 10.5 15.7579C7.60074 15.7579 5.24211 13.3993 5.24211 10.5ZM16.9048 2.62093C17.667 2.62093 18.2848 3.23881 18.2848 4.00099C18.2848 4.7632 17.667 5.38107 16.9048 5.38107C16.1426 5.38107 15.5247 4.7632 15.5247 4.00099C15.5247 3.23881 16.1426 2.62093 16.9048 2.62093Z" fill="white"/>
</svg>
