<svg width="23" height="23" viewBox="0 0 23 23" fill="none" xmlns="http://www.w3.org/2000/svg">
<path fill-rule="evenodd" clip-rule="evenodd" d="M0.359375 11.5C0.359375 5.3502 5.3502 0.359375 11.5 0.359375C17.6498 0.359375 22.6406 5.3502 22.6406 11.5C22.6406 17.6498 17.6498 22.6406 11.5 22.6406C5.3502 22.6406 0.359375 17.6498 0.359375 11.5ZM18.0453 10.2063C18.2474 10.3231 18.3912 10.3815 18.6248 10.3815C19.1728 10.3815 19.6669 9.9458 19.6669 9.33486C19.6669 8.80029 19.4378 8.52178 19.0875 8.31963C16.5763 6.85518 13.1398 6.17236 9.8605 6.17236C7.93335 6.17236 6.16343 6.39248 4.58218 6.85518C4.17788 6.97197 3.80054 7.31787 3.80054 7.92881C3.80054 8.52627 4.25425 8.98897 4.84722 8.98897C5.02704 8.98897 5.19749 8.93898 5.34294 8.89632C5.37189 8.88783 5.39986 8.87963 5.42671 8.87217C9.12827 7.83897 14.8468 8.29717 18.0453 10.2063ZM16.7395 13.6481C16.8814 13.7252 17.0274 13.8046 17.2322 13.8046C17.7218 13.8046 18.0992 13.4138 18.1037 12.9286C18.1037 12.5378 17.9599 12.2593 17.596 12.0437C15.3769 10.7229 12.5603 9.99971 9.64487 9.99971C7.77612 9.99971 6.50034 10.2603 5.25151 10.6106C4.78882 10.7409 4.55522 11.0599 4.55522 11.5405C4.55522 12.0212 4.94605 12.412 5.42671 12.412C5.57539 12.412 5.6779 12.3804 5.80752 12.3405C5.85413 12.3261 5.90425 12.3107 5.96128 12.2952C9.6853 11.2845 13.872 11.9538 16.6796 13.6159C16.6996 13.6265 16.7195 13.6373 16.7395 13.6481ZM15.5431 16.5897C15.7183 16.6931 15.8351 16.7515 16.0238 16.7515C16.3876 16.7515 16.7066 16.4685 16.7066 16.0597C16.7066 15.6509 16.5449 15.4937 16.2709 15.3185C13.0634 13.4003 9.30347 13.3284 5.62437 14.1415C5.28745 14.2134 5.01343 14.4335 5.01343 14.8962C5.01343 15.2601 5.28745 15.606 5.72319 15.606C5.82549 15.606 5.98873 15.5616 6.13896 15.5208C6.18004 15.5097 6.22014 15.4988 6.25776 15.4892C9.47866 14.8288 12.74 14.9007 15.5431 16.5897Z" fill="white"/>
</svg>
