<svg width="21" height="17" viewBox="0 0 21 17" fill="none" xmlns="http://www.w3.org/2000/svg">
<path fill-rule="evenodd" clip-rule="evenodd" d="M1.8749 7.34813C7.24359 5.00908 10.8236 3.46703 12.6148 2.72199C17.7292 0.594747 18.7919 0.225223 19.4846 0.213021C19.6369 0.210337 19.9776 0.248093 20.1982 0.427134C20.3845 0.578312 20.4358 0.782533 20.4603 0.925867C20.4848 1.0692 20.5154 1.39572 20.4911 1.65085C20.214 4.56288 19.0147 11.6296 18.4046 14.8912C18.1465 16.2712 17.6382 16.734 17.1461 16.7792C16.0766 16.8777 15.2645 16.0725 14.2287 15.3935C12.6078 14.331 11.6921 13.6696 10.1188 12.6328C8.30053 11.4346 9.47923 10.776 10.5155 9.69975C10.7866 9.41809 15.4987 5.13209 15.5899 4.74328C15.6013 4.69466 15.6119 4.5134 15.5042 4.41769C15.3965 4.32198 15.2376 4.35471 15.1229 4.38074C14.9604 4.41763 12.371 6.1291 7.35486 9.51513C6.61988 10.0198 5.95416 10.2657 5.3577 10.2528C4.70015 10.2386 3.43528 9.88105 2.49498 9.5754C1.34166 9.2005 0.425027 9.00229 0.504845 8.3656C0.546419 8.03397 1.0031 7.69481 1.8749 7.34813Z" fill="white"/>
</svg>
