<svg width="32" height="32" viewBox="0 0 32 32" fill="none" xmlns="http://www.w3.org/2000/svg">
<path d="M16.8545 24.0675C18.0421 25.1983 20.3448 27 23 27C26.8669 27 30 23.1667 30 23.1667C28.9874 22.0048 27.7745 21.0313 26.4179 20.2917C23.8786 22.8121 19.7366 23.6985 17.4917 24.0052L16.8545 24.0675Z" fill="#9393B0"/>
<path d="M2 23.1667C2 23.1667 5.1331 27 9 27C11.6552 27 13.9579 25.1983 15.1455 24.0675L14.5083 23.9812C12.2634 23.6746 8.12138 22.7881 5.58207 20.2677C4.22359 21.0145 3.0105 21.9963 2 23.1667Z" fill="#9393B0"/>
<path d="M17.3615 23.0325C19.4325 22.7498 23.3863 21.9304 25.7518 19.5825C29.0684 16.2954 29.3628 9.90333 29.3628 9.90333C29.3628 9.90333 24.6463 10.119 21.2091 12.2417C21.2766 12.6857 21.3105 13.1342 21.3104 13.5833C21.3104 17.5317 18.6263 21.4177 17.3615 23.0325Z" fill="#9393B0"/>
<path d="M2.63733 9.90333C2.63733 9.90333 2.93182 16.2954 6.24837 19.5825C8.61388 21.9304 12.5677 22.7498 14.6387 23.0325C13.3739 21.4177 10.6897 17.5317 10.6897 13.5833C10.6897 13.1342 10.7236 12.6857 10.7911 12.2417C7.35388 10.119 2.63733 9.90333 2.63733 9.90333Z" fill="#9393B0"/>
<path d="M16 4C16 4 20.3448 8.83 20.3448 13.5833C20.3448 18.3367 16 23.1667 16 23.1667C16 23.1667 11.6552 18.3367 11.6552 13.5833C11.6552 8.83 16 4 16 4Z" fill="#9393B0"/>
</svg>
