<svg aria-hidden="true" style="position: absolute; width: 0; height: 0; overflow: hidden;" version="1.1" xmlns="http://www.w3.org/2000/svg" xmlns:xlink="http://www.w3.org/1999/xlink">
<defs>
<symbol id="icon-spotify" viewBox="0 0 32 32">
<path fill="#fff" style="fill: var(--color1, #fff)" d="M0.5 16c0-8.556 6.944-15.5 15.5-15.5s15.5 6.944 15.5 15.5c0 8.556-6.944 15.5-15.5 15.5s-15.5-6.944-15.5-15.5zM25.107 14.2c0.281 0.162 0.481 0.244 0.806 0.244 0.762 0 1.45-0.606 1.45-1.456 0-0.744-0.319-1.131-0.806-1.412-3.494-2.037-8.275-2.988-12.838-2.988-2.681 0-5.144 0.306-7.344 0.95-0.563 0.162-1.088 0.644-1.088 1.494 0 0.831 0.631 1.475 1.456 1.475 0.25 0 0.487-0.070 0.69-0.129 0.040-0.012 0.079-0.023 0.117-0.034 5.15-1.438 13.106-0.8 17.556 1.856zM23.29 18.989c0.197 0.107 0.401 0.218 0.686 0.218 0.681 0 1.206-0.544 1.213-1.219 0-0.544-0.2-0.931-0.706-1.231-3.087-1.838-7.006-2.844-11.062-2.844-2.6 0-4.375 0.363-6.112 0.85-0.644 0.181-0.969 0.625-0.969 1.294s0.544 1.213 1.212 1.213c0.207 0 0.349-0.044 0.53-0.099 0.065-0.020 0.135-0.041 0.214-0.063 5.181-1.406 11.006-0.475 14.912 1.837 0.028 0.015 0.055 0.030 0.083 0.045zM21.625 23.081c0.244 0.144 0.406 0.225 0.669 0.225 0.506 0 0.95-0.394 0.95-0.962s-0.225-0.787-0.606-1.031c-4.463-2.669-9.694-2.769-14.813-1.638-0.469 0.1-0.85 0.406-0.85 1.050 0 0.506 0.381 0.988 0.987 0.988 0.142 0 0.369-0.062 0.578-0.119 0.057-0.015 0.113-0.031 0.165-0.044 4.481-0.919 9.019-0.819 12.919 1.531z"></path>
</symbol>
<symbol id="icon-instagram" viewBox="0 0 32 32">
<path fill="#fff" style="fill: var(--color1, #fff)" d="M0.762 9.176v13.647c0 4.64 3.775 8.414 8.415 8.414h13.647c4.64 0 8.414-3.775 8.414-8.414v-13.647c0-4.64-3.775-8.415-8.414-8.415h-13.647c-4.64 0-8.415 3.775-8.415 8.415zM9.949 16c0 3.336 2.714 6.051 6.051 6.051s6.051-2.715 6.051-6.051-2.715-6.051-6.051-6.051c-3.336 0-6.051 2.714-6.051 6.051zM7.988 16c0-4.418 3.594-8.012 8.012-8.012s8.012 3.594 8.012 8.012c0 4.418-3.594 8.012-8.012 8.012s-8.012-3.594-8.012-8.012zM25.76 3.994c1.161 0 2.103 0.942 2.103 2.103s-0.941 2.103-2.103 2.103-2.103-0.942-2.103-2.103c0-1.161 0.942-2.103 2.103-2.103z"></path>
</symbol>
<symbol id="icon-telegram" viewBox="0 0 40 32">
<path fill="#fff" style="fill: var(--color1, #fff)" d="M3.529 13.832c10.106-4.403 16.845-7.306 20.216-8.708 9.627-4.004 11.627-4.7 12.931-4.723 0.287-0.005 0.928 0.066 1.343 0.403 0.351 0.285 0.447 0.669 0.493 0.939s0.104 0.884 0.058 1.365c-0.522 5.481-2.779 18.784-3.928 24.923-0.486 2.598-1.443 3.469-2.369 3.554-2.013 0.185-3.542-1.33-5.492-2.608-3.051-2-4.775-3.245-7.736-5.197-3.423-2.255-1.204-3.495 0.747-5.521 0.51-0.53 9.38-8.598 9.552-9.33 0.021-0.092 0.041-0.433-0.161-0.613s-0.502-0.119-0.718-0.070c-0.306 0.069-5.18 3.291-14.622 9.665-1.383 0.95-2.637 1.413-3.759 1.389-1.238-0.027-3.619-0.7-5.389-1.275-2.171-0.706-3.896-1.079-3.746-2.277 0.078-0.624 0.938-1.263 2.579-1.915z"></path>
</symbol>
</defs>
</svg>
